<?xml version="1.0" encoding="UTF-8"?>
<svg version="1.1" xmlns="http://www.w3.org/2000/svg" width="512" height="512">
<path d="M0 0 C168.96 0 337.92 0 512 0 C512 168.96 512 337.92 512 512 C343.04 512 174.08 512 0 512 C0 343.04 0 174.08 0 0 Z " fill="#D4E7FD" transform="translate(0,0)"/>
<path d="M0 0 C84.48 0 168.96 0 256 0 C256 20.13 256 40.26 256 61 C251.37742188 61.02578125 246.75484375 61.0515625 241.9921875 61.078125 C239.0572368 61.10330265 236.12238823 61.12964229 233.1875 61.16015625 C228.53287415 61.20843997 223.87848479 61.25250356 219.22363281 61.27099609 C215.46915424 61.28618159 211.71529586 61.32065941 207.9610939 61.36830902 C206.53148933 61.38310355 205.1017962 61.39103991 203.67211533 61.39188385 C201.66395427 61.39426068 199.65588103 61.42366587 197.64794922 61.45410156 C196.50655487 61.46298401 195.36516052 61.47186646 194.18917847 61.48101807 C189.262822 62.28269475 186.23355691 64.44911191 183.1502533 68.32559204 C181.7242074 71.64123434 181.61228217 74.18202036 181.59594727 77.79052734 C181.58908401 78.4530098 181.58222076 79.11549225 181.57514954 79.79804993 C181.5569208 81.97756685 181.56071371 84.15636105 181.56640625 86.3359375 C181.56184187 87.85902133 181.55653553 89.38210309 181.55052185 90.90518188 C181.54159799 94.0944252 181.54400467 97.28341803 181.55395508 100.47265625 C181.56543209 104.54699583 181.54524999 108.62046707 181.51603794 112.69469261 C181.49763273 115.8398482 181.49797712 118.98479747 181.50367546 122.12999344 C181.50382821 123.63140708 181.4978221 125.13283511 181.48538399 126.63419724 C181.17311836 137.57248683 181.17311836 137.57248683 186 147 C190.53727117 151.24672041 196.5635521 150.47664074 202.42578125 150.51171875 C203.52850876 150.52966995 204.63123627 150.54762115 205.76737976 150.56611633 C209.28238119 150.62021004 212.79724687 150.6541129 216.3125 150.6875 C218.69858659 150.7206738 221.08465527 150.75516352 223.47070312 150.79101562 C229.31382154 150.87840835 235.15632258 150.93848761 241 151 C241 160.9 241 170.8 241 181 C236.0487915 181.01401855 236.0487915 181.01401855 230.99755859 181.02832031 C220.09299741 181.06208399 209.18862559 181.11762968 198.28421593 181.18390274 C191.67270284 181.22341557 185.06132371 181.25558559 178.44970703 181.27099609 C172.06938877 181.28613728 165.68943869 181.32053852 159.30928421 181.36830902 C156.87486597 181.38314887 154.44039518 181.3910425 152.00593185 181.39188385 C148.59649121 181.3942473 145.18807317 181.42127897 141.77880859 181.45410156 C140.77179901 181.4490712 139.76478943 181.44404083 138.7272644 181.43885803 C132.83234754 181.52668672 129.51853038 182.1262357 125 186 C120.80138501 190.63799847 121.52367319 196.51108723 121.48828125 202.42578125 C121.46135445 204.07987251 121.46135445 204.07987251 121.43388367 205.76737976 C121.37978996 209.28238119 121.3458871 212.79724687 121.3125 216.3125 C121.2793262 218.69858659 121.24483648 221.08465527 121.20898438 223.47070312 C121.12159165 229.31382154 121.06151239 235.15632258 121 241 C130.9 241 140.8 241 151 241 C151 231.1 151 221.2 151 211 C180.7 211 210.4 211 241 211 C241 220.9 241 230.8 241 241 C231.375 241.25 231.375 241.25 228.37646484 241.29785156 C222.83144308 241.51081985 219.29632201 242.16635883 215 246 C212.05891951 249.99215912 211.6182016 252.87437295 211.59594727 257.79052734 C211.58908401 258.4530098 211.58222076 259.11549225 211.57514954 259.79804993 C211.5569208 261.97756685 211.56071371 264.15636105 211.56640625 266.3359375 C211.56184187 267.85902133 211.55653553 269.38210309 211.55052185 270.90518188 C211.54159799 274.0944252 211.54400467 277.28341803 211.55395508 280.47265625 C211.56543209 284.54699583 211.54524999 288.62046707 211.51603794 292.69469261 C211.49763273 295.8398482 211.49797712 298.98479747 211.50367546 302.12999344 C211.50382821 303.63140708 211.4978221 305.13283511 211.48538399 306.63419724 C211.17311836 317.57248683 211.17311836 317.57248683 216 327 C220.01379585 330.41297272 224.07477614 330.4683636 229.14453125 330.51171875 C230.16903381 330.53667419 230.16903381 330.53667419 231.2142334 330.56213379 C233.74668107 330.61962872 236.27964698 330.65210992 238.8125 330.6875 C244.484375 330.790625 250.15625 330.89375 256 331 C256 351.13 256 371.26 256 392 C171.52 392 87.04 392 0 392 C0 262.64 0 133.28 0 0 Z " fill="#ECF4FE" transform="translate(0,120)"/>
<path d="M0 0 C168.96 0 337.92 0 512 0 C512 39.6 512 79.2 512 120 C343.04 120 174.08 120 0 120 C0 80.4 0 40.8 0 0 Z " fill="#29376D" transform="translate(0,0)"/>
<path d="M0 0 C84.48 0 168.96 0 256 0 C256 39.6 256 79.2 256 120 C171.52 120 87.04 120 0 120 C0 80.4 0 40.8 0 0 Z " fill="#47568C" transform="translate(0,0)"/>
<path d="M0 0 C1.62544235 -0.01268921 1.62544235 -0.01268921 3.28372192 -0.02563477 C4.46256454 -0.01956207 5.64140717 -0.01348938 6.85597229 -0.00723267 C8.10527527 -0.01248962 9.35457825 -0.01774658 10.64173889 -0.02316284 C14.06135014 -0.03409494 17.48041597 -0.03154545 20.89999652 -0.02202559 C24.48331596 -0.01441764 28.06661248 -0.0214779 31.64993286 -0.02618408 C37.66803662 -0.03163905 43.68602985 -0.02445762 49.70411682 -0.01016235 C56.65412749 0.00615633 63.60387401 0.00088044 70.55387825 -0.01564157 C76.52771937 -0.02927274 82.50148114 -0.03116793 88.4753328 -0.02332556 C92.04024428 -0.01865702 95.60503179 -0.01800138 99.16993523 -0.02793503 C103.1461138 -0.03824103 107.12199863 -0.02394057 111.09815979 -0.00723267 C112.27497818 -0.01330536 113.45179657 -0.01937805 114.66427612 -0.02563477 C124.7264822 0.05271316 124.7264822 0.05271316 129.54176331 3.38095093 C133.78318789 8.08090789 134.66731767 10.57709332 134.70289612 16.84677124 C134.70786102 17.51042191 134.71282593 18.17407257 134.71794128 18.85783386 C134.73257153 21.05825838 134.73936746 23.25861072 134.74488831 25.45907593 C134.75064051 26.98884076 134.75639824 28.51860557 134.76216125 30.04837036 C134.7726747 33.25965715 134.77851463 36.47091888 134.78199768 39.68222046 C134.78747308 43.78907223 134.81147891 47.89559089 134.83996964 52.00233841 C134.85863509 55.16457063 134.86380376 58.32672339 134.86533356 61.48900604 C134.86835349 63.00241663 134.87635974 64.51582604 134.88951874 66.02918243 C134.90665624 68.15222623 134.90468042 70.27446677 134.89820862 72.39755249 C134.90367706 74.20718475 134.90367706 74.20718475 134.90925598 76.05337524 C134.35739293 81.05038928 132.71866359 84.29231816 129.04176331 87.69345093 C125.49395104 90.08822421 122.8801838 90.50521422 118.70314026 90.49447632 C117.23195488 90.49436302 117.23195488 90.49436302 115.73104858 90.49424744 C114.67471725 90.48908615 113.61838593 90.48392487 112.53004456 90.47860718 C111.4466832 90.47719223 110.36332184 90.47577728 109.24713135 90.47431946 C105.78281406 90.46871652 102.3185611 90.45616351 98.85426331 90.44345093 C96.50725903 90.43843631 94.16025374 90.43387333 91.81324768 90.42977905 C86.05604142 90.41959652 80.29897449 90.40002156 74.54176331 90.38095093 C74.54176331 100.28095093 74.54176331 110.18095093 74.54176331 120.38095093 C79.44753235 120.35738525 79.44753235 120.35738525 84.45240784 120.33334351 C95.25704085 120.2836387 106.0616789 120.25049831 116.86639595 120.22551441 C123.41742627 120.20985725 129.96833946 120.18861768 136.51930237 120.15463257 C142.84110033 120.12204148 149.16278561 120.10409829 155.4846611 120.0963192 C157.89680124 120.09077529 160.30893519 120.07994948 162.72102737 120.06376076 C166.09907112 120.04199033 169.47664899 120.03898391 172.85475159 120.04037476 C173.85241043 120.02958893 174.85006927 120.0188031 175.87796021 120.00769043 C181.18926324 120.03136019 184.97190037 120.35687216 189.54176331 123.38095093 C193.19735282 127.4317393 194.66886123 129.79597879 194.6552887 135.19784546 C194.65521317 136.19873199 194.65513763 137.19961853 194.65505981 138.23083496 C194.64989853 139.31420135 194.64473724 140.39756775 194.63941956 141.51376343 C194.63729713 143.17422195 194.63729713 143.17422195 194.63513184 144.8682251 C194.62952103 148.41416086 194.61696667 151.96003416 194.60426331 155.50595093 C194.5992497 157.9056896 194.59468655 160.30542926 194.59059143 162.70516968 C194.58039771 168.59714036 194.56082433 174.48897548 194.54176331 180.38095093 C184.64176331 180.38095093 174.74176331 180.38095093 164.54176331 180.38095093 C164.54176331 170.48095093 164.54176331 160.58095093 164.54176331 150.38095093 C134.84176331 150.38095093 105.14176331 150.38095093 74.54176331 150.38095093 C74.54176331 160.28095093 74.54176331 170.18095093 74.54176331 180.38095093 C64.64176331 180.38095093 54.74176331 180.38095093 44.54176331 180.38095093 C44.54176331 170.48095093 44.54176331 160.58095093 44.54176331 150.38095093 C14.84176331 150.38095093 -14.85823669 150.38095093 -45.45823669 150.38095093 C-45.45823669 160.28095093 -45.45823669 170.18095093 -45.45823669 180.38095093 C-55.35823669 180.38095093 -65.25823669 180.38095093 -75.45823669 180.38095093 C-75.57322146 173.38732175 -75.6727071 166.39699013 -75.7328949 159.40316772 C-75.75799166 157.02577584 -75.79207659 154.64846076 -75.83543396 152.27133179 C-75.89629561 148.848043 -75.92449589 145.42577702 -75.94651794 142.00204468 C-75.97232437 140.94448471 -75.9981308 139.88692474 -76.02471924 138.7973175 C-76.02686256 133.11908101 -75.58508978 129.31969058 -72.02310181 124.7966156 C-66.54872929 119.84419145 -61.88600363 119.96467314 -54.79295349 120.04037476 C-53.18251915 120.03971764 -53.18251915 120.03971764 -51.53955078 120.03904724 C-47.99533321 120.04113515 -44.45159026 120.06446701 -40.90745544 120.08798218 C-38.44837706 120.09357811 -35.98929533 120.09784822 -33.5302124 120.10084534 C-27.06107839 120.11229426 -20.59214676 120.14176219 -14.12309265 120.17495728 C-7.52064247 120.20565692 -0.91815956 120.21935047 5.68434143 120.23446655 C18.63691857 120.26663161 31.58929244 120.31940026 44.54176331 120.38095093 C44.54176331 110.48095093 44.54176331 100.58095093 44.54176331 90.38095093 C39.24951721 90.46796265 39.24951721 90.46796265 33.85035706 90.55673218 C30.42158759 90.59576034 26.99284316 90.62610084 23.5639801 90.65560913 C21.18658822 90.68070589 18.80927314 90.71479083 16.43214417 90.75814819 C13.00885538 90.81900984 9.5865894 90.84721012 6.16285706 90.86923218 C5.10529709 90.8950386 4.04773712 90.92084503 2.95812988 90.94743347 C-2.67558447 90.94955999 -6.50954596 90.51018304 -11.04257202 87.04347229 C-14.89034381 82.52474486 -15.83702272 78.29774365 -15.87815857 72.47689819 C-15.88662811 71.81426971 -15.89509766 71.15164124 -15.90382385 70.46893311 C-15.92707917 68.29487519 -15.9282189 66.12152967 -15.92698669 63.94735718 C-15.93409488 62.42570212 -15.94179483 60.90404973 -15.95005798 59.38240051 C-15.96347613 56.19914288 -15.96508351 53.01613316 -15.95921326 49.83285522 C-15.95331726 45.76624394 -15.98391528 41.70082659 -16.02433014 37.63444614 C-16.05025802 34.49357262 -16.05308006 31.35298475 -16.04943848 28.21201897 C-16.05112476 26.71337825 -16.06071986 25.21472364 -16.07858276 23.71618843 C-16.21799599 10.57641157 -16.21799599 10.57641157 -13.23362732 6.09555054 C-9.03005974 1.98405617 -5.93693818 0.00715222 0 0 Z " fill="#EF3800" transform="translate(196.45823669433594,180.61904907226563)"/>
<path d="M0 0 C9.9 0 19.8 0 30 0 C30 9.9 30 19.8 30 30 C33.2705127 29.98428955 36.54102539 29.9685791 39.91064453 29.95239258 C50.71527754 29.90268777 61.51991559 29.86954738 72.32463264 29.84456348 C78.87566296 29.82890632 85.42657615 29.80766676 91.97753906 29.77368164 C98.29933702 29.74109055 104.62102231 29.72314736 110.9428978 29.71536827 C113.35503793 29.70982436 115.76717189 29.69899855 118.17926407 29.68280983 C121.55730782 29.6610394 124.93488569 29.65803298 128.31298828 29.65942383 C129.31064713 29.648638 130.30830597 29.63785217 131.3361969 29.6267395 C136.64749994 29.65040926 140.43013706 29.97592123 145 33 C148.65558951 37.05078838 150.12709792 39.41502787 150.11352539 44.81689453 C150.11344986 45.81778107 150.11337433 46.8186676 150.11329651 47.84988403 C150.10813522 48.93325043 150.10297394 50.01661682 150.09765625 51.1328125 C150.09553383 52.79327103 150.09553383 52.79327103 150.09336853 54.48727417 C150.08775772 58.03320993 150.07520337 61.57908323 150.0625 65.125 C150.05748639 67.52473867 150.05292325 69.92447833 150.04882812 72.32421875 C150.0386344 78.21618943 150.01906103 84.10802455 150 90 C140.1 90 130.2 90 120 90 C120 80.1 120 70.2 120 60 C90.3 60 60.6 60 30 60 C30 69.9 30 79.8 30 90 C20.1 90 10.2 90 0 90 C0 80.1 0 70.2 0 60 C-29.7 60 -59.4 60 -90 60 C-90 69.9 -90 79.8 -90 90 C-99.9 90 -109.8 90 -120 90 C-120.11498477 83.00637083 -120.2144704 76.01603921 -120.2746582 69.0222168 C-120.29975496 66.64482491 -120.3338399 64.26750983 -120.37719727 61.89038086 C-120.43805892 58.46709208 -120.46625919 55.04482609 -120.48828125 51.62109375 C-120.51408768 50.56353378 -120.5398941 49.50597382 -120.56648254 48.41636658 C-120.56862587 42.73813009 -120.12685309 38.93873965 -116.56486511 34.41566467 C-111.0904926 29.46324052 -106.42776694 29.58372222 -99.3347168 29.65942383 C-97.72428246 29.65876671 -97.72428246 29.65876671 -96.08131409 29.65809631 C-92.53709652 29.66018422 -88.99335356 29.68351608 -85.44921875 29.70703125 C-82.99014037 29.71262718 -80.53105863 29.71689729 -78.07197571 29.71989441 C-71.6028417 29.73134334 -65.13391006 29.76081126 -58.66485596 29.79400635 C-52.06240578 29.82470599 -45.45992287 29.83839954 -38.85742188 29.85351562 C-25.90484474 29.88568068 -12.95247087 29.93844933 0 30 C0 20.1 0 10.2 0 0 Z " fill="#47568C" transform="translate(241,271)"/>
<path d="M0 0 C0.66408875 -0.00525696 1.32817749 -0.01051392 2.01239014 -0.01593018 C4.19673536 -0.02907986 6.38034527 -0.02040962 8.56469727 -0.01025391 C10.09017577 -0.01227634 11.61565333 -0.0151892 13.14112854 -0.01895142 C16.33457669 -0.02336814 19.52777264 -0.01696584 22.72119141 -0.00292969 C26.80447479 0.01414752 30.88716592 0.00432656 34.97042751 -0.01364708 C38.11982136 -0.02451511 41.26907604 -0.02102455 44.4184742 -0.0132637 C45.92349379 -0.01126927 47.42852621 -0.01369428 48.93353081 -0.02070236 C51.04196238 -0.02836536 53.14945074 -0.01664597 55.2578125 0 C56.45518539 0.00238678 57.65255829 0.00477356 58.88621521 0.00723267 C63.89901988 0.58461652 67.13624457 2.21651558 70.50610352 5.95068359 C73.22834066 9.88280391 73.32754702 12.06266976 73.35473633 16.85400391 C73.36218369 17.8494799 73.36218369 17.8494799 73.36978149 18.86506653 C73.38441174 21.06549104 73.39120767 23.26584338 73.39672852 25.46630859 C73.40248072 26.99607343 73.40823845 28.52583824 73.41400146 30.05560303 C73.42451491 33.26688981 73.43035484 36.47815155 73.43383789 39.68945312 C73.43931329 43.7963049 73.46331912 47.90282356 73.49180984 52.00957108 C73.5104753 55.1718033 73.51564397 58.33395606 73.51717377 61.49623871 C73.5201937 63.0096493 73.52819995 64.52305871 73.54135895 66.0364151 C73.55849645 68.15945889 73.55652063 70.28169944 73.55004883 72.40478516 C73.55551727 74.21441742 73.55551727 74.21441742 73.56109619 76.06060791 C73.00923314 81.05762195 71.3705038 84.29955083 67.69360352 87.70068359 C63.61597594 90.4530822 60.44755808 90.52934014 55.63012695 90.58105469 C54.63684135 90.59332092 54.63684135 90.59332092 53.62348938 90.60583496 C51.43332816 90.63063372 49.24323159 90.64719202 47.05297852 90.66162109 C46.30321999 90.66694477 45.55346146 90.67226845 44.78098297 90.67775345 C40.81127445 90.704463 36.84159711 90.72384355 32.87182617 90.73828125 C29.59322146 90.75161122 26.31524052 90.77944825 23.03686523 90.8203125 C19.07164915 90.86973285 15.10699802 90.89441359 11.14148712 90.90150833 C9.63444092 90.90820444 8.12740652 90.92338388 6.6205368 90.94739914 C-6.6226105 91.14639111 -6.6226105 91.14639111 -11.09838867 88.23046875 C-15.76055771 83.33712473 -17.178929 79.18986718 -17.22631836 72.48413086 C-17.2347879 71.82150238 -17.24325745 71.1588739 -17.25198364 70.47616577 C-17.27523896 68.30210785 -17.27637869 66.12876233 -17.27514648 63.95458984 C-17.28225467 62.43293479 -17.28995462 60.9112824 -17.29821777 59.38963318 C-17.31163592 56.20637554 -17.3132433 53.02336582 -17.30737305 49.84008789 C-17.30147705 45.77347661 -17.33207507 41.70805926 -17.37248993 37.64167881 C-17.39841781 34.50080528 -17.40123985 31.36021742 -17.39759827 28.21925163 C-17.39928455 26.72061092 -17.40887965 25.2219563 -17.42674255 23.7234211 C-17.56615578 10.58364423 -17.56615578 10.58364423 -14.58178711 6.1027832 C-9.84116867 1.46600132 -6.65965597 0.01328383 0 0 Z " fill="#73BCFE" transform="translate(227.806396484375,360.61181640625)"/>
<path d="M0 0 C1.47298946 -0.00269889 2.94597717 -0.00658461 4.41896057 -0.01159668 C7.49798637 -0.01747504 10.5765462 -0.00898453 13.65551758 0.00976562 C17.58402153 0.03253485 21.51143097 0.0194356 25.43989468 -0.00452423 C28.47960003 -0.01904502 31.51905005 -0.0143474 34.5587635 -0.00401306 C36.00630895 -0.00136201 37.45387827 -0.00455793 38.9013958 -0.01393127 C54.47534643 -0.09265445 54.47534643 -0.09265445 59.94140625 4.53125 C65.4911607 10.85052207 64.52450651 18.56968552 64.47265625 26.58984375 C64.47535514 28.06283321 64.47924086 29.53582092 64.48425293 31.00880432 C64.49013129 34.08783012 64.48164078 37.16638995 64.46289062 40.24536133 C64.4401214 44.17386528 64.45322065 48.10127472 64.47718048 52.02973843 C64.49170127 55.06944378 64.48700365 58.1088938 64.47666931 61.14860725 C64.47401826 62.5961527 64.47721418 64.04372202 64.48658752 65.49123955 C64.56666275 81.33266755 64.56666275 81.33266755 59.94140625 86.53125 C53.60785389 92.15543529 44.72516991 91.13220154 36.78515625 91.09765625 C35.31359466 91.10290039 33.84203643 91.10917975 32.3704834 91.11643982 C29.29744565 91.12680638 26.22487206 91.12233651 23.15185547 91.10766602 C19.23106286 91.09047179 15.31173499 91.11399876 11.39110565 91.14915562 C8.35567684 91.17120728 5.32059448 91.16966981 2.28511047 91.1613903 C0.8403411 91.16057524 -0.60445485 91.167353 -2.04914856 91.18216133 C-16.13661066 91.3044642 -16.13661066 91.3044642 -21.61265564 87.02830505 C-27.80236795 80.61977343 -26.51477154 71.76354573 -26.4921875 63.4375 C-26.49675489 61.96211508 -26.50206211 60.48673229 -26.5080719 59.01135254 C-26.51697773 55.92821577 -26.51460836 52.84533839 -26.50463867 49.76220703 C-26.49314238 45.82467689 -26.51338239 41.88804271 -26.54255581 37.95063019 C-26.56095998 34.90670147 -26.56061722 31.86298593 -26.55491829 28.8190155 C-26.55476564 27.367841 -26.56076317 25.91665153 -26.57320976 24.4655304 C-26.6804141 9.92157634 -26.6804141 9.92157634 -22.05859375 4.53125 C-15.64947506 -0.95479962 -8.0630239 -0.05212739 0 0 Z " fill="#73BCFE" transform="translate(357.05859375,360.46875)"/>
<path d="M0 0 C1.47298946 -0.00269889 2.94597717 -0.00658461 4.41896057 -0.01159668 C7.49798637 -0.01747504 10.5765462 -0.00898453 13.65551758 0.00976562 C17.58402153 0.03253485 21.51143097 0.0194356 25.43989468 -0.00452423 C28.47960003 -0.01904502 31.51905005 -0.0143474 34.5587635 -0.00401306 C36.00630895 -0.00136201 37.45387827 -0.00455793 38.9013958 -0.01393127 C54.47220519 -0.09263857 54.47220519 -0.09263857 59.94140625 4.53125 C65.51002188 10.84676068 64.54187143 18.82857429 64.5078125 26.80859375 C64.51305485 28.30400477 64.51933356 29.79941249 64.52659607 31.29481506 C64.53697346 34.42090472 64.53247804 37.54653844 64.51782227 40.67260742 C64.5006428 44.6618014 64.52413122 48.64955379 64.55931187 52.638587 C64.58136381 55.72462858 64.57982571 58.81032937 64.57154655 61.89642525 C64.57073119 63.36631412 64.57751478 64.83622906 64.59231758 66.30604362 C64.7092588 80.01819037 64.7092588 80.01819037 60.59898376 86.03004456 C56.22043197 89.99553379 51.91149191 90.90969681 46.14501953 90.95117188 C45.49375092 90.95964142 44.8424823 90.96811096 44.17147827 90.97683716 C42.03468893 91.00009118 39.89862465 91.00123211 37.76171875 91 C36.26487953 91.00710913 34.76804302 91.01480923 33.27120972 91.02307129 C30.13922546 91.0364898 27.00749316 91.03809705 23.87548828 91.03222656 C19.87846865 91.02633575 15.88266592 91.05690682 11.88588142 91.09734344 C8.79557885 91.12330137 5.70556607 91.12609057 2.61516953 91.12245178 C1.14247457 91.1241358 -0.33023482 91.13370874 -1.80282211 91.15159607 C-16.17305215 91.30694131 -16.17305215 91.30694131 -21.62281799 87.02954102 C-27.78893376 80.59494577 -26.51480397 71.77550094 -26.4921875 63.4375 C-26.49675489 61.96211508 -26.50206211 60.48673229 -26.5080719 59.01135254 C-26.51697773 55.92821577 -26.51460836 52.84533839 -26.50463867 49.76220703 C-26.49314238 45.82467689 -26.51338239 41.88804271 -26.54255581 37.95063019 C-26.56095998 34.90670147 -26.56061722 31.86298593 -26.55491829 28.8190155 C-26.55476564 27.367841 -26.56076317 25.91665153 -26.57320976 24.4655304 C-26.6804141 9.92157634 -26.6804141 9.92157634 -22.05859375 4.53125 C-15.64947506 -0.95479962 -8.0630239 -0.05212739 0 0 Z " fill="#76E2F8" transform="translate(117.05859375,360.46875)"/>
<path d="M0 0 C1.31907349 0.00036255 2.63814697 0.0007251 3.99719238 0.00109863 C5.38900178 0.01620244 6.78080695 0.03170201 8.17260742 0.04760742 C9.44535522 0.05062866 10.71810303 0.0536499 12.02941895 0.0567627 C16.77905396 0.07244645 21.5285733 0.11433038 26.27807617 0.15307617 C42.21088867 0.24588867 42.21088867 0.24588867 58.46557617 0.34057617 C58.46557617 30.04057617 58.46557617 59.74057617 58.46557617 90.34057617 C47.88495117 90.44370117 37.30432617 90.54682617 26.40307617 90.65307617 C23.07334717 90.69859619 19.74361816 90.74411621 16.31298828 90.79101562 C13.66464241 90.80562294 11.01628529 90.81836303 8.36791992 90.82885742 C7.68709854 90.84192429 7.00627716 90.85499115 6.30482483 90.86845398 C-6.30937509 91.09826378 -6.30937509 91.09826378 -10.77832031 88.18505859 C-15.49814852 83.31388148 -16.90682162 79.16132291 -16.9543457 72.43652344 C-16.96281525 71.77389496 -16.97128479 71.11126648 -16.98001099 70.42855835 C-17.00326631 68.25450043 -17.00440603 66.08115491 -17.00317383 63.90698242 C-17.01028201 62.38532737 -17.01798197 60.86367498 -17.02624512 59.34202576 C-17.03966327 56.15876812 -17.04127064 52.9757584 -17.03540039 49.79248047 C-17.02950439 45.72586918 -17.06010242 41.66045184 -17.10051727 37.59407139 C-17.12644515 34.45319786 -17.1292672 31.31260999 -17.12562561 28.17164421 C-17.12731189 26.67300349 -17.136907 25.17434888 -17.1547699 23.67581367 C-17.29418312 10.53603681 -17.29418312 10.53603681 -14.30981445 6.05517578 C-9.66325834 1.51039592 -6.53342338 -0.03805878 0 0 Z " fill="#FE641A" transform="translate(197.534423828125,180.659423828125)"/>
<path d="M0 0 C4.95 0 9.9 0 15 0 C15 29.7 15 59.4 15 90 C10.05 90 5.1 90 0 90 C0 80.1 0 70.2 0 60 C-29.7 60 -59.4 60 -90 60 C-90 69.9 -90 79.8 -90 90 C-99.9 90 -109.8 90 -120 90 C-120.11498477 83.00637083 -120.2144704 76.01603921 -120.2746582 69.0222168 C-120.29975496 66.64482491 -120.3338399 64.26750983 -120.37719727 61.89038086 C-120.43805892 58.46709208 -120.46625919 55.04482609 -120.48828125 51.62109375 C-120.51408768 50.56353378 -120.5398941 49.50597382 -120.56648254 48.41636658 C-120.56862587 42.73813009 -120.12685309 38.93873965 -116.56486511 34.41566467 C-111.0904926 29.46324052 -106.42776694 29.58372222 -99.3347168 29.65942383 C-97.72428246 29.65876671 -97.72428246 29.65876671 -96.08131409 29.65809631 C-92.53709652 29.66018422 -88.99335356 29.68351608 -85.44921875 29.70703125 C-82.99014037 29.71262718 -80.53105863 29.71689729 -78.07197571 29.71989441 C-71.6028417 29.73134334 -65.13391006 29.76081126 -58.66485596 29.79400635 C-52.06240578 29.82470599 -45.45992287 29.83839954 -38.85742188 29.85351562 C-25.90484474 29.88568068 -12.95247087 29.93844933 0 30 C0 20.1 0 10.2 0 0 Z " fill="#61729B" transform="translate(241,271)"/>
<path d="M0 0 C0 29.7 0 59.4 0 90 C-35 90 -35 90 -42 85 C-44.8740307 80.66772959 -45.38356309 77.24082341 -45.41992188 72.09594727 C-45.42839142 71.43331879 -45.43686096 70.77069031 -45.44558716 70.08798218 C-45.46884248 67.91392426 -45.4699822 65.74057874 -45.46875 63.56640625 C-45.47585818 62.0447512 -45.48355814 60.5230988 -45.49182129 59.00144958 C-45.50523944 55.81819195 -45.50684681 52.63518223 -45.50097656 49.4519043 C-45.49508057 45.38529301 -45.52567859 41.31987566 -45.56609344 37.25349522 C-45.59202133 34.11262169 -45.59484337 30.97203382 -45.59120178 27.83106804 C-45.59288807 26.33242732 -45.60248317 24.83377271 -45.62034607 23.3352375 C-45.75975929 10.19546064 -45.75975929 10.19546064 -42.77539062 5.71459961 C-30.34100825 -6.44742517 -22.01628991 0 0 0 Z " fill="#76E2F8" transform="translate(256,361)"/>
<path d="M0 0 C4.36492736 2.40706674 5.93942071 4.83284673 7.8125 9.4375 C8.54520346 14.47483626 7.62027557 18.24512573 5.20703125 22.63671875 C1.89427009 26.91454198 -2.56531496 28.20982491 -7.75 28.9375 C-11.90567414 28.33303831 -15.0494453 27.21048398 -18.1875 24.4375 C-21.62339266 19.77883377 -23.03044428 15.23274192 -22.1875 9.4375 C-20.42898855 4.50534364 -17.74068059 1.40845153 -13.0390625 -0.90234375 C-8.34602817 -2.57559861 -4.45447532 -1.90552555 0 0 Z " fill="#71B9FC" transform="translate(443.1875,46.5625)"/>
<path d="M0 0 C4.36492736 2.40706674 5.93942071 4.83284673 7.8125 9.4375 C8.54520346 14.47483626 7.62027557 18.24512573 5.20703125 22.63671875 C1.89427009 26.91454198 -2.56531496 28.20982491 -7.75 28.9375 C-11.90567414 28.33303831 -15.0494453 27.21048398 -18.1875 24.4375 C-21.62339266 19.77883377 -23.03044428 15.23274192 -22.1875 9.4375 C-20.42898855 4.50534364 -17.74068059 1.40845153 -13.0390625 -0.90234375 C-8.34602817 -2.57559861 -4.45447532 -1.90552555 0 0 Z " fill="#71B9FC" transform="translate(383.1875,46.5625)"/>
<path d="M0 0 C4.36492736 2.40706674 5.93942071 4.83284673 7.8125 9.4375 C8.54520346 14.47483626 7.62027557 18.24512573 5.20703125 22.63671875 C1.89427009 26.91454198 -2.56531496 28.20982491 -7.75 28.9375 C-11.90567414 28.33303831 -15.0494453 27.21048398 -18.1875 24.4375 C-21.62339266 19.77883377 -23.03044428 15.23274192 -22.1875 9.4375 C-20.42898855 4.50534364 -17.74068059 1.40845153 -13.0390625 -0.90234375 C-8.34602817 -2.57559861 -4.45447532 -1.90552555 0 0 Z " fill="#71B9FC" transform="translate(323.1875,46.5625)"/>
<path d="M0 0 C2.97 0 5.94 0 9 0 C7.71034824 1.37562854 6.37310707 2.70766393 5 4 C4.34 4 3.68 4 3 4 C2.34 5.65 1.68 7.3 1 9 C0.67 9 0.34 9 0 9 C0 6.03 0 3.06 0 0 Z " fill="#000006" transform="translate(0,0)"/>
<path d="M0 0 C0.33 0 0.66 0 1 0 C1 2.97 1 5.94 1 9 C-1.97 9 -4.94 9 -8 9 C-6.8553125 8.1646875 -6.8553125 8.1646875 -5.6875 7.3125 C-3.03568819 5.03070844 -1.68044905 3.02480829 0 0 Z " fill="#000000" transform="translate(511,503)"/>
<path d="M0 0 C0.556875 0.7425 1.11375 1.485 1.6875 2.25 C3.93027178 4.91707995 6.22074975 6.91556232 9 9 C6.03 9 3.06 9 0 9 C0 6.03 0 3.06 0 0 Z " fill="#000000" transform="translate(0,503)"/>
<path d="M0 0 C2.97 0 5.94 0 9 0 C9 2.97 9 5.94 9 9 C8.443125 8.2575 7.88625 7.515 7.3125 6.75 C5.06972822 4.08292005 2.77925025 2.08443768 0 0 Z " fill="#000000" transform="translate(503,0)"/>
</svg>
