<?xml version="1.0" encoding="UTF-8"?>
<svg version="1.1" xmlns="http://www.w3.org/2000/svg" width="512" height="512">
<path d="M0 0 C1.24193115 -0.00191345 2.4838623 -0.0038269 3.76342773 -0.00579834 C6.37190963 -0.00715069 8.98039848 -0.00352118 11.58886719 0.00488281 C15.55158801 0.0155955 19.51385556 0.00495459 23.4765625 -0.0078125 C26.02604265 -0.00649074 28.57552253 -0.003928 31.125 0 C32.87864868 -0.00607269 32.87864868 -0.00607269 34.66772461 -0.01226807 C48.46114341 0.0652648 60.26867953 1.98348999 71.5625 10.265625 C73.0475 11.3484375 73.0475 11.3484375 74.5625 12.453125 C84.18225835 20.68783961 88.26259174 33.09756643 89.5625 45.265625 C89.86754163 51.04023703 89.8509535 56.82055694 89.82324219 62.6015625 C89.81252007 65.26064859 89.82319124 67.91905932 89.8359375 70.578125 C89.85311745 88.09982903 88.35810733 103.37794468 75.875 116.765625 C61.02257332 130.53128876 45.8853258 129.265625 25.5625 129.265625 C25.5625 147.085625 25.5625 164.905625 25.5625 183.265625 C29.71561768 183.25515137 33.86873535 183.24467773 38.14770508 183.23388672 C51.88599869 183.20071302 65.62429171 183.17853971 79.36261463 183.16200066 C87.69025025 183.15170789 96.0178478 183.13768597 104.34545898 183.11474609 C111.60762153 183.09475079 118.86975648 183.08189404 126.13194579 183.07744801 C129.97374399 183.07485099 133.8154633 183.06878896 137.6572361 183.05416489 C141.28102476 183.04048372 144.90470283 183.0364234 148.52851486 183.03940964 C150.47660999 183.03860612 152.42469337 183.02790005 154.37275696 183.01678467 C167.97322523 183.04834752 179.42966974 185.10154948 190.5625 193.265625 C191.5525 193.9875 192.5425 194.709375 193.5625 195.453125 C200.60401844 201.48081225 205.69009703 211.23446581 207.5625 220.265625 C207.64828709 222.09831847 207.68023341 223.93385932 207.67602539 225.76855469 C207.67594986 226.86939392 207.67587433 227.97023315 207.67579651 229.10443115 C207.67063522 230.28684387 207.66547394 231.46925659 207.66015625 232.6875 C207.65803383 234.51018402 207.65803383 234.51018402 207.65586853 236.36968994 C207.65026988 240.25169331 207.6377176 244.13363906 207.625 248.015625 C207.61998483 250.64713458 207.61542195 253.27864507 207.61132812 255.91015625 C207.60030089 262.36199883 207.58356408 268.8138078 207.5625 275.265625 C208.31756836 275.24467773 209.07263672 275.22373047 209.85058594 275.20214844 C213.33775007 275.11797918 216.82469944 275.06664821 220.3125 275.015625 C221.49972656 274.98210937 222.68695313 274.94859375 223.91015625 274.9140625 C237.81477359 274.76209947 248.65697319 278.79080352 258.78515625 288.3671875 C263.58181584 293.44178438 266.91589186 298.81323538 269.5625 305.265625 C270.07828613 306.4414917 270.07828613 306.4414917 270.60449219 307.64111328 C272.01750074 312.98706767 271.88786502 318.2070856 271.8984375 323.71484375 C271.9050943 324.92324417 271.9117511 326.13164459 271.91860962 327.37666321 C271.92872068 329.931025 271.93342712 332.48541313 271.93310547 335.03979492 C271.93746523 338.92216273 271.97376702 342.803381 272.01171875 346.68554688 C272.01759007 349.17447531 272.02155735 351.6634091 272.0234375 354.15234375 C272.03780853 355.30167892 272.05217957 356.4510141 272.06698608 357.63517761 C272.00586399 368.57137992 268.86138425 377.37787894 262.5625 386.265625 C261.964375 387.131875 261.36625 387.998125 260.75 388.890625 C251.06465753 399.40613968 238.33346316 403.63750036 224.3336792 404.45391846 C220.92922858 404.52737385 217.53021596 404.54304189 214.125 404.53125 C212.26210327 404.53412018 212.26210327 404.53412018 210.36157227 404.53704834 C207.75309037 404.53840069 205.14460152 404.53477118 202.53613281 404.52636719 C198.57341199 404.5156545 194.61114444 404.52629541 190.6484375 404.5390625 C188.09895735 404.53774074 185.54947747 404.535178 183 404.53125 C181.24635132 404.53732269 181.24635132 404.53732269 179.45727539 404.54351807 C165.70085262 404.46619316 153.80745645 402.57711455 142.5625 394.265625 C142.02109375 393.89308594 141.4796875 393.52054687 140.921875 393.13671875 C131.99412092 386.40068808 126.64345416 375.50285189 125.02099609 364.64013672 C124.46507299 359.98500291 124.40071505 355.36746932 124.39453125 350.68359375 C124.39120285 349.78876785 124.38787445 348.89394196 124.38444519 347.97200012 C124.37940965 346.08867909 124.37703581 344.20534924 124.37719727 342.32202148 C124.37501422 339.47168972 124.3568317 336.62174772 124.33789062 333.77148438 C124.2890881 318.2928648 125.17473082 305.17380762 134.5625 292.265625 C135.14 291.440625 135.7175 290.615625 136.3125 289.765625 C143.13616904 282.18377051 152.56159009 277.27951291 162.5625 275.265625 C164.58718711 275.18471408 166.61434619 275.15803601 168.640625 275.16796875 C169.80078125 275.17119141 170.9609375 275.17441406 172.15625 275.17773438 C173.3628125 275.18611328 174.569375 275.19449219 175.8125 275.203125 C177.64554687 275.20989258 177.64554687 275.20989258 179.515625 275.21679688 C182.53129946 275.22857685 185.54687498 275.24502647 188.5625 275.265625 C188.5206876 268.16681446 188.44822131 261.06877885 188.35498047 253.97045898 C188.32684892 251.55842085 188.30559574 249.14629187 188.29150391 246.73413086 C188.26996673 243.25587718 188.22325866 239.77870688 188.171875 236.30078125 C188.17003204 234.69711449 188.17003204 234.69711449 188.16815186 233.06105042 C187.9917836 223.93453371 185.57800498 216.57179961 179.328125 209.76953125 C170.59432355 202.33034197 159.05524993 203.11003803 148.28344727 203.06030273 C146.94252734 203.05071091 145.60161035 203.04070009 144.26069641 203.03030396 C140.63727846 203.00339004 137.01384766 202.98230779 133.39038587 202.96230197 C129.59738686 202.94035853 125.80442684 202.91301093 122.01145935 202.88624573 C114.83643888 202.83643142 107.66139664 202.79145105 100.48633379 202.74822336 C90.78536445 202.68949698 81.08444646 202.62327096 71.38352299 202.55747318 C56.10988332 202.45407477 40.83619924 202.36066854 25.5625 202.265625 C25.5625 226.355625 25.5625 250.445625 25.5625 275.265625 C34.1425 275.265625 42.7225 275.265625 51.5625 275.265625 C68.51664606 280.91700702 78.10264038 287.58162147 86.1171875 303.3125 C90.38784701 313.83425439 89.87669579 325.45031775 89.82324219 336.6015625 C89.81252007 339.26064859 89.82319124 341.91905932 89.8359375 344.578125 C89.84939593 359.95465558 88.9407915 373.47704569 79.5625 386.265625 C78.4796875 387.750625 78.4796875 387.750625 77.375 389.265625 C69.07553328 398.96102649 56.76876619 402.79774897 44.5625 404.265625 C40.08031056 404.52380156 35.61378116 404.54679416 31.125 404.53125 C29.26210327 404.53412018 29.26210327 404.53412018 27.36157227 404.53704834 C24.75309037 404.53840069 22.14460152 404.53477118 19.53613281 404.52636719 C15.57341199 404.5156545 11.61114444 404.52629541 7.6484375 404.5390625 C5.09895735 404.53774074 2.54947747 404.535178 0 404.53125 C-1.16909912 404.53529846 -2.33819824 404.53934692 -3.54272461 404.54351807 C-17.33614341 404.4659852 -29.14367953 402.54776001 -40.4375 394.265625 C-41.9225 393.1828125 -41.9225 393.1828125 -43.4375 392.078125 C-53.05725835 383.84341039 -57.13759174 371.43368357 -58.4375 359.265625 C-58.74254163 353.49101297 -58.7259535 347.71069306 -58.69824219 341.9296875 C-58.68752007 339.27060141 -58.69819124 336.61219068 -58.7109375 333.953125 C-58.72811745 316.43142097 -57.23310733 301.15330532 -44.75 287.765625 C-29.89757332 273.99996124 -14.7603258 275.265625 5.5625 275.265625 C5.5625 251.175625 5.5625 227.085625 5.5625 202.265625 C-18.36529532 202.3854121 -18.36529532 202.3854121 -42.29296875 202.5234375 C-52.05450295 202.58379506 -61.81601963 202.64216787 -71.57763672 202.6875 C-78.68785596 202.72052851 -85.79799862 202.76041903 -92.90813315 202.80841506 C-96.66993641 202.83357255 -100.43168959 202.85538501 -104.19355392 202.86896896 C-107.74106777 202.88188762 -111.28840889 202.90404539 -114.83582687 202.93300819 C-116.74470421 202.94626906 -118.65364055 202.94998642 -120.56256104 202.95332336 C-130.68317941 203.05088326 -140.42508712 203.43959943 -148.4375 210.265625 C-155.76157877 218.15935434 -156.74008426 225.54061814 -156.8515625 236.0078125 C-156.87092865 237.13132111 -156.8902948 238.25482971 -156.9102478 239.41238403 C-156.96985875 242.98838798 -157.01635548 246.56442443 -157.0625 250.140625 C-157.10069674 252.57032626 -157.13974946 255.00001423 -157.1796875 257.4296875 C-157.27554515 263.37488167 -157.36064658 269.32015642 -157.4375 275.265625 C-156.63314514 275.24920959 -155.82879028 275.23279419 -155.00006104 275.21588135 C-152.78199641 275.17061472 -150.56391702 275.12606725 -148.3458252 275.08215332 C-146.03207003 275.03341539 -143.71855747 274.97276662 -141.40527344 274.90527344 C-130.13287364 274.79548883 -120.58076899 277.64906735 -111.4375 284.265625 C-110.57125 284.86375 -109.705 285.461875 -108.8125 286.078125 C-98.99650156 295.1191762 -93.92202576 307.31800595 -93.33755493 320.52383423 C-93.29008096 322.96559503 -93.27275554 325.40543696 -93.26953125 327.84765625 C-93.26620285 328.74248215 -93.26287445 329.63730804 -93.25944519 330.55924988 C-93.25440965 332.44257091 -93.25203581 334.32590076 -93.25219727 336.20922852 C-93.25001422 339.05956028 -93.2318317 341.90950228 -93.21289062 344.75976562 C-93.15830491 362.44224671 -94.56130405 376.40316632 -106.4375 390.265625 C-119.57208056 402.66796414 -134.19100016 404.41725623 -151.58203125 404.43359375 C-152.82820724 404.43692215 -154.07438324 404.44025055 -155.35832214 404.44367981 C-157.98472731 404.44872338 -160.61113883 404.45108893 -163.23754883 404.45092773 C-167.22680168 404.4508063 -171.21587052 404.47129087 -175.20507812 404.49023438 C-177.76822823 404.49316932 -180.33137964 404.49515344 -182.89453125 404.49609375 C-184.66229668 404.50687202 -184.66229668 404.50687202 -186.46577454 404.51786804 C-196.75946242 404.48987253 -206.59395999 403.79876783 -215.8125 398.953125 C-216.93398437 398.37949219 -218.05546875 397.80585938 -219.2109375 397.21484375 C-229.60655029 390.93468542 -236.72253701 381.21688782 -239.99801636 369.51789856 C-240.9439794 364.67001041 -240.7855996 359.71153779 -240.80859375 354.7890625 C-240.81762222 353.58682037 -240.8266507 352.38457825 -240.83595276 351.14590454 C-240.85042879 348.6059212 -240.85933539 346.0659008 -240.86303711 343.52587891 C-240.87489677 339.67415094 -240.92408239 335.82404491 -240.97460938 331.97265625 C-240.98407908 329.49479941 -240.99131149 327.01693282 -240.99609375 324.5390625 C-241.01562607 323.40318695 -241.03515839 322.2673114 -241.05528259 321.09701538 C-240.98015199 307.52906291 -235.90178863 296.94762205 -226.5625 287.3359375 C-215.60098074 277.03741336 -204.02839446 274.94254516 -189.5 275.140625 C-188.24380859 275.14964844 -186.98761719 275.15867187 -185.69335938 275.16796875 C-182.60787478 275.19143251 -179.52278795 275.22426299 -176.4375 275.265625 C-176.45082367 274.26869881 -176.45082367 274.26869881 -176.4644165 273.25163269 C-176.5533794 266.29162251 -176.61343645 259.33177567 -176.65722656 252.37133789 C-176.67725721 249.77882315 -176.70448967 247.18635312 -176.73925781 244.59399414 C-176.78815141 240.85291467 -176.81055539 237.1124361 -176.828125 233.37109375 C-176.84877014 232.22481003 -176.86941528 231.07852631 -176.89068604 229.89750671 C-176.89368239 218.98501913 -173.77594159 210.10814228 -167.4375 201.265625 C-166.715625 200.255 -165.99375 199.244375 -165.25 198.203125 C-157.09418725 188.8785665 -145.55532743 184.24973086 -133.4375 183.265625 C-128.88117202 183.12742356 -124.32764222 183.13920599 -119.76953125 183.15209961 C-118.39891054 183.1523821 -117.02828969 183.15222254 -115.65766907 183.1516571 C-111.95783414 183.15137154 -108.25803199 183.15722917 -104.55820465 183.16423106 C-100.68382435 183.17050487 -96.80944319 183.17107158 -92.93505859 183.17225647 C-85.60775418 183.17535795 -78.28046478 183.18355532 -70.95316696 183.19360596 C-62.60731401 183.20480393 -54.26146033 183.21028682 -45.91560173 183.21530139 C-28.75622433 183.22573897 -11.59686759 183.24406967 5.5625 183.265625 C5.5625 165.445625 5.5625 147.625625 5.5625 129.265625 C-3.0175 129.265625 -11.5975 129.265625 -20.4375 129.265625 C-37.39164606 123.61424298 -46.97764038 116.94962853 -54.9921875 101.21875 C-59.26284701 90.69699561 -58.75169579 79.08093225 -58.69824219 67.9296875 C-58.68752007 65.27060141 -58.69819124 62.61219068 -58.7109375 59.953125 C-58.72439593 44.57659442 -57.8157915 31.05420431 -48.4375 18.265625 C-47.715625 17.275625 -46.99375 16.285625 -46.25 15.265625 C-34.6070184 1.66434375 -16.69863005 -0.05782552 0 0 Z " fill="#6D6E71" transform="translate(240.4375,53.734375)"/>
<path d="M0 0 C0.68400375 -0.00671722 1.36800751 -0.01343445 2.07273865 -0.02035522 C4.31460008 -0.03921606 6.55616005 -0.04325379 8.7980957 -0.04541016 C10.37360247 -0.05184807 11.94910808 -0.05857715 13.52461243 -0.06558228 C16.82210049 -0.07752655 20.11948404 -0.08126622 23.41699219 -0.08007812 C27.61180326 -0.07987549 31.80593264 -0.10713225 36.0005827 -0.14162254 C39.25485722 -0.16402808 42.50897149 -0.16791147 45.7633152 -0.16685867 C47.30805616 -0.1691959 48.85280283 -0.17791159 50.39746666 -0.19352341 C66.08780981 -0.33721914 78.08182072 3.1847183 89.91137695 13.79052734 C102.70146819 27.19454296 103.13080065 44.16921492 103.04711914 61.62646484 C103.03639702 64.28555094 103.04706819 66.94396166 103.05981445 69.60302734 C103.07327289 84.97955793 102.16466845 98.50194803 92.78637695 111.29052734 C92.06450195 112.28052734 91.34262695 113.27052734 90.59887695 114.29052734 C82.29941024 123.98592883 69.99264314 127.82265131 57.78637695 129.29052734 C53.30418751 129.5487039 48.83765811 129.5716965 44.34887695 129.55615234 C42.48598022 129.55902252 42.48598022 129.55902252 40.58544922 129.56195068 C37.97696732 129.56330304 35.36847848 129.55967352 32.76000977 129.55126953 C28.79728894 129.54055684 24.8350214 129.55119776 20.87231445 129.56396484 C18.3228343 129.56264308 15.77335442 129.56008034 13.22387695 129.55615234 C12.05477783 129.56020081 10.88567871 129.56424927 9.68115234 129.56842041 C-4.11226646 129.49088754 -15.91980258 127.57266235 -27.21362305 119.29052734 C-28.69862305 118.20771484 -28.69862305 118.20771484 -30.21362305 117.10302734 C-39.8333814 108.86831273 -43.91371478 96.45858591 -45.21362305 84.29052734 C-45.51866468 78.51591531 -45.50207654 72.7355954 -45.47436523 66.95458984 C-45.46364311 64.29550375 -45.47431429 61.63709302 -45.48706055 58.97802734 C-45.50424049 41.45632332 -44.00923037 26.17820766 -31.52612305 12.79052734 C-22.79862131 4.7016233 -11.90984523 0.07397814 0 0 Z " fill="#FE783A" transform="translate(227.213623046875,328.70947265625)"/>
<path d="M0 0 C1.24193115 -0.00191345 2.4838623 -0.0038269 3.76342773 -0.00579834 C6.37190963 -0.00715069 8.98039848 -0.00352118 11.58886719 0.00488281 C15.55158801 0.0155955 19.51385556 0.00495459 23.4765625 -0.0078125 C26.02604265 -0.00649074 28.57552253 -0.003928 31.125 0 C32.29409912 -0.00404846 33.46319824 -0.00809692 34.66772461 -0.01226807 C48.46114341 0.0652648 60.26867953 1.98348999 71.5625 10.265625 C72.5525 10.9875 73.5425 11.709375 74.5625 12.453125 C84.18225835 20.68783961 88.26259174 33.09756643 89.5625 45.265625 C89.86754163 51.04023703 89.8509535 56.82055694 89.82324219 62.6015625 C89.81252007 65.26064859 89.82319124 67.91905932 89.8359375 70.578125 C89.85311745 88.09982903 88.35810733 103.37794468 75.875 116.765625 C67.14749826 124.85452905 56.25872218 129.4821742 44.34887695 129.55615234 C43.6648732 129.56286957 42.98086945 129.56958679 42.27613831 129.57650757 C40.03427687 129.5953684 37.7927169 129.59940613 35.55078125 129.6015625 C33.97527448 129.60800041 32.39976888 129.61472949 30.82426453 129.62173462 C27.52677646 129.6336789 24.22939292 129.63741856 20.93188477 129.63623047 C16.73707369 129.63602784 12.54294431 129.66328459 8.34829426 129.69777489 C5.09401973 129.72018042 1.83990546 129.72406381 -1.41443825 129.72301102 C-2.9591792 129.72534824 -4.50392587 129.73406394 -6.04858971 129.74967575 C-21.73893286 129.89337149 -33.73294376 126.37143404 -45.5625 115.765625 C-58.35259124 102.36160938 -58.7819237 85.38693743 -58.69824219 67.9296875 C-58.68752007 65.27060141 -58.69819124 62.61219068 -58.7109375 59.953125 C-58.72439593 44.57659442 -57.8157915 31.05420431 -48.4375 18.265625 C-47.715625 17.275625 -46.99375 16.285625 -46.25 15.265625 C-34.6070184 1.66434375 -16.69863005 -0.05782552 0 0 Z " fill="#7FD33F" transform="translate(240.4375,53.734375)"/>
<path d="M0 0 C0.68400375 -0.00671722 1.36800751 -0.01343445 2.07273865 -0.02035522 C4.31460008 -0.03921606 6.55616005 -0.04325379 8.7980957 -0.04541016 C10.37360247 -0.05184807 11.94910808 -0.05857715 13.52461243 -0.06558228 C16.82210049 -0.07752655 20.11948404 -0.08126622 23.41699219 -0.08007812 C27.61180326 -0.07987549 31.80593264 -0.10713225 36.0005827 -0.14162254 C39.25485722 -0.16402808 42.50897149 -0.16791147 45.7633152 -0.16685867 C47.30805616 -0.1691959 48.85280283 -0.17791159 50.39746666 -0.19352341 C63.23215832 -0.31106644 74.17366616 1.61060314 84.78637695 9.29052734 C85.65262695 9.88865234 86.51887695 10.48677734 87.41137695 11.10302734 C97.2273754 20.14407854 102.3018512 32.34290829 102.88632202 45.54873657 C102.933796 47.99049738 102.95112141 50.4303393 102.9543457 52.87255859 C102.9576741 53.76738449 102.9610025 54.66221039 102.96443176 55.58415222 C102.9694673 57.46747325 102.97184114 59.3508031 102.97167969 61.23413086 C102.97386273 64.08446263 102.99204525 66.93440463 103.01098633 69.78466797 C103.06557204 87.46714906 101.6625729 101.42806866 89.78637695 115.29052734 C76.65179639 127.69286648 62.03287679 129.44215857 44.6418457 129.45849609 C42.77258171 129.46348869 42.77258171 129.46348869 40.86555481 129.46858215 C38.23914965 129.47362572 35.61273813 129.47599128 32.98632812 129.47583008 C28.99707527 129.47570864 25.00800643 129.49619321 21.01879883 129.51513672 C18.45564872 129.51807167 15.89249732 129.52005578 13.3293457 129.52099609 C11.56158028 129.53177437 11.56158028 129.53177437 9.75810242 129.54277039 C-0.53558547 129.51477488 -10.37008303 128.82367017 -19.58862305 123.97802734 C-20.71010742 123.40439453 -21.8315918 122.83076172 -22.98706055 122.23974609 C-33.38267333 115.95958776 -40.49866005 106.24179016 -43.7741394 94.5428009 C-44.72010244 89.69491276 -44.56172265 84.73644014 -44.5847168 79.81396484 C-44.59374527 78.61172272 -44.60277374 77.40948059 -44.61207581 76.17080688 C-44.62655184 73.63082355 -44.63545844 71.09080314 -44.63916016 68.55078125 C-44.65101982 64.69905328 -44.70020544 60.84894725 -44.75073242 56.99755859 C-44.76020213 54.51970176 -44.76743454 52.04183516 -44.7722168 49.56396484 C-44.80151527 47.86015152 -44.80151527 47.86015152 -44.83140564 46.12191772 C-44.75627503 32.55396525 -39.67791168 21.9725244 -30.33862305 12.36083984 C-21.90321434 4.43563731 -11.59862185 0.07204497 0 0 Z " fill="#FEE43B" transform="translate(44.213623046875,328.70947265625)"/>
<path d="M0 0 C1.78775848 -0.01441132 1.78775848 -0.01441132 3.6116333 -0.02911377 C4.89189392 -0.03336365 6.17215454 -0.03761353 7.49121094 -0.04199219 C8.14837852 -0.04481956 8.80554611 -0.04764694 9.48262787 -0.05056 C12.96189267 -0.06551406 16.44111642 -0.07476679 19.92041016 -0.07910156 C23.49218365 -0.08457399 27.0635736 -0.10858642 30.6352272 -0.13707352 C33.40125584 -0.15581227 36.16719423 -0.16091147 38.93328094 -0.16243744 C40.88348321 -0.16688895 42.83363694 -0.18548017 44.78375244 -0.20440674 C54.62759263 -0.17987903 63.63536209 1.06675378 70.97558594 8.16113281 C77.74586641 16.46018629 79.28651821 24.02903037 79.38183594 34.48535156 C79.39323608 35.46800491 79.40463623 36.45065826 79.41638184 37.46308899 C79.43520652 39.53646591 79.44831975 41.60990166 79.45605469 43.68334961 C79.47542292 46.82221416 79.53751052 49.9584311 79.60058594 53.09667969 C79.7269719 65.0899132 79.51321693 74.54847276 71.35131836 84.05249023 C62.85122228 92.15185872 53.22422804 92.76698482 41.97558594 92.69238281 C40.53027079 92.69508374 39.08495743 92.69897114 37.63964844 92.70397949 C34.62384588 92.70984645 31.60852015 92.70140342 28.59277344 92.68261719 C24.74961379 92.65982844 20.90757188 92.6729668 17.06445312 92.69690704 C14.08390051 92.71144179 11.10360782 92.70672426 8.12304688 92.69639587 C6.70702986 92.6937497 5.29098834 92.69692313 3.875 92.70631409 C-7.75952652 92.76656382 -15.69110468 91.01785028 -24.29785156 83.02832031 C-29.04957157 77.88958239 -31.09692791 72.42099909 -31.2331543 65.49121094 C-31.25244492 64.56924927 -31.27173553 63.6472876 -31.29161072 62.6973877 C-31.34986739 58.46855035 -31.39867586 54.2398753 -31.42944336 50.01074219 C-31.45095319 47.79183319 -31.48497165 45.57300741 -31.53198242 43.35449219 C-32.06536413 17.91920788 -32.06536413 17.91920788 -23.21704102 8.16967773 C-16.77179871 1.95803564 -8.74184718 0.05709663 0 0 Z " fill="#929497" transform="translate(415.0244140625,346.8388671875)"/>
<path d="M0 0 C1.24193115 -0.00191345 2.4838623 -0.0038269 3.76342773 -0.00579834 C6.37190963 -0.00715069 8.98039848 -0.00352118 11.58886719 0.00488281 C15.55158801 0.0155955 19.51385556 0.00495459 23.4765625 -0.0078125 C26.02604265 -0.00649074 28.57552253 -0.003928 31.125 0 C32.29409912 -0.00404846 33.46319824 -0.00809692 34.66772461 -0.01226807 C48.46114341 0.0652648 60.26867953 1.98348999 71.5625 10.265625 C72.5525 10.9875 73.5425 11.709375 74.5625 12.453125 C84.18225835 20.68783961 88.26259174 33.09756643 89.5625 45.265625 C89.86754163 51.04023703 89.8509535 56.82055694 89.82324219 62.6015625 C89.81252007 65.26064859 89.82319124 67.91905932 89.8359375 70.578125 C89.85311745 88.09982903 88.35810733 103.37794468 75.875 116.765625 C67.14749826 124.85452905 56.25872218 129.4821742 44.34887695 129.55615234 C43.6648732 129.56286957 42.98086945 129.56958679 42.27613831 129.57650757 C40.03427687 129.5953684 37.7927169 129.59940613 35.55078125 129.6015625 C33.97527448 129.60800041 32.39976888 129.61472949 30.82426453 129.62173462 C27.52677646 129.6336789 24.22939292 129.63741856 20.93188477 129.63623047 C16.73707369 129.63602784 12.54294431 129.66328459 8.34829426 129.69777489 C5.09401973 129.72018042 1.83990546 129.72406381 -1.41443825 129.72301102 C-2.9591792 129.72534824 -4.50392587 129.73406394 -6.04858971 129.74967575 C-21.73893286 129.89337149 -33.73294376 126.37143404 -45.5625 115.765625 C-58.35259124 102.36160938 -58.7819237 85.38693743 -58.69824219 67.9296875 C-58.68752007 65.27060141 -58.69819124 62.61219068 -58.7109375 59.953125 C-58.72439593 44.57659442 -57.8157915 31.05420431 -48.4375 18.265625 C-47.715625 17.275625 -46.99375 16.285625 -46.25 15.265625 C-34.6070184 1.66434375 -16.69863005 -0.05782552 0 0 Z M-34.4375 30.265625 C-37.55015424 35.15950912 -39.53841854 40.0201009 -39.63037109 45.85375977 C-39.64643402 46.78225235 -39.66249695 47.71074493 -39.67904663 48.66737366 C-39.72375147 52.92838676 -39.7645961 57.18924608 -39.78759766 61.45043945 C-39.8041076 63.68980335 -39.83133136 65.92911563 -39.86962891 68.16821289 C-39.92475923 71.41059489 -39.94633126 74.65174186 -39.9609375 77.89453125 C-39.98360687 78.88344864 -40.00627625 79.87236603 -40.02963257 80.89125061 C-40.00288548 89.81206651 -36.82446583 97.87865917 -30.4375 104.265625 C-21.3367335 111.22862756 -12.25134551 111.57474534 -1.13671875 111.56640625 C0.13543991 111.57069138 1.40759857 111.5749765 2.7183075 111.57939148 C5.40210912 111.58511852 8.08552414 111.5865901 10.76928711 111.58129883 C14.17827596 111.57551779 17.58671905 111.59241946 20.99561787 111.6156435 C24.28483381 111.634077 27.57402308 111.63019227 30.86328125 111.62890625 C32.07196365 111.638116 33.28064606 111.64732574 34.5259552 111.65681458 C44.51788585 111.6029092 53.90589458 110.54678356 61.84375 104.0078125 C64.70127522 101.11132103 66.75677477 97.89807226 68.5625 94.265625 C68.90635742 93.61891846 69.25021484 92.97221191 69.60449219 92.3059082 C71.03688149 87.76015287 70.88784501 83.33353001 70.8984375 78.59375 C70.9050943 77.55675964 70.9117511 76.51976929 70.91860962 75.45135498 C70.92872181 73.25925465 70.93342708 71.06712363 70.93310547 68.875 C70.93746662 65.54114256 70.97376947 62.20862236 71.01171875 58.875 C71.01758978 56.73958783 71.02155726 54.60416941 71.0234375 52.46875 C71.03780853 51.48094543 71.05217957 50.49314087 71.06698608 49.47540283 C71.00550306 40.04123088 67.95821916 32.911694 61.5625 25.9921875 C55.54201283 20.79481381 48.12570425 19.15791708 40.3762207 19.08862305 C39.12424393 19.07578781 37.87226715 19.06295258 36.58235168 19.04972839 C35.2176656 19.04155841 33.85297499 19.03411517 32.48828125 19.02734375 C31.7970989 19.02326822 31.10591656 19.0191927 30.39378929 19.01499367 C26.73298827 18.99416479 23.07222433 18.97985119 19.41137695 18.97045898 C15.65002449 18.95942031 11.8892678 18.92504162 8.12812519 18.88528728 C5.21883627 18.85900721 2.30968668 18.850757 -0.59971046 18.84717751 C-1.98506491 18.84233835 -3.37041427 18.83080141 -4.75565147 18.81213951 C-17.04375648 18.65692501 -26.06235206 20.86726894 -34.4375 30.265625 Z " fill="#6EA62B" transform="translate(240.4375,53.734375)"/>
<path d="M0 0 C0.68400375 -0.00671722 1.36800751 -0.01343445 2.07273865 -0.02035522 C4.31460008 -0.03921606 6.55616005 -0.04325379 8.7980957 -0.04541016 C10.37360247 -0.05184807 11.94910808 -0.05857715 13.52461243 -0.06558228 C16.82210049 -0.07752655 20.11948404 -0.08126622 23.41699219 -0.08007812 C27.61180326 -0.07987549 31.80593264 -0.10713225 36.0005827 -0.14162254 C39.25485722 -0.16402808 42.50897149 -0.16791147 45.7633152 -0.16685867 C47.30805616 -0.1691959 48.85280283 -0.17791159 50.39746666 -0.19352341 C66.08780981 -0.33721914 78.08182072 3.1847183 89.91137695 13.79052734 C102.70146819 27.19454296 103.13080065 44.16921492 103.04711914 61.62646484 C103.03639702 64.28555094 103.04706819 66.94396166 103.05981445 69.60302734 C103.07327289 84.97955793 102.16466845 98.50194803 92.78637695 111.29052734 C92.06450195 112.28052734 91.34262695 113.27052734 90.59887695 114.29052734 C82.29941024 123.98592883 69.99264314 127.82265131 57.78637695 129.29052734 C53.30418751 129.5487039 48.83765811 129.5716965 44.34887695 129.55615234 C42.48598022 129.55902252 42.48598022 129.55902252 40.58544922 129.56195068 C37.97696732 129.56330304 35.36847848 129.55967352 32.76000977 129.55126953 C28.79728894 129.54055684 24.8350214 129.55119776 20.87231445 129.56396484 C18.3228343 129.56264308 15.77335442 129.56008034 13.22387695 129.55615234 C12.05477783 129.56020081 10.88567871 129.56424927 9.68115234 129.56842041 C-4.11226646 129.49088754 -15.91980258 127.57266235 -27.21362305 119.29052734 C-28.69862305 118.20771484 -28.69862305 118.20771484 -30.21362305 117.10302734 C-39.8333814 108.86831273 -43.91371478 96.45858591 -45.21362305 84.29052734 C-45.51866468 78.51591531 -45.50207654 72.7355954 -45.47436523 66.95458984 C-45.46364311 64.29550375 -45.47431429 61.63709302 -45.48706055 58.97802734 C-45.50424049 41.45632332 -44.00923037 26.17820766 -31.52612305 12.79052734 C-22.79862131 4.7016233 -11.90984523 0.07397814 0 0 Z M-20.21362305 28.29052734 C-27.83042328 38.04217414 -27.13519932 49.25330412 -26.99584961 61.04443359 C-26.9636836 64.28442774 -26.9956465 67.51943514 -27.03393555 70.75927734 C-27.05794813 82.84580586 -26.80886497 92.61707397 -18.59033203 102.17919922 C-10.14328168 110.23679892 -0.50700976 110.917552 10.6809082 110.89208984 C12.11903875 110.89988442 13.55716476 110.90855793 14.99528503 110.9180603 C17.99847381 110.93291042 21.0011921 110.93245833 24.00439453 110.921875 C27.82072491 110.9103076 31.63510682 110.9441223 35.45111561 110.99056435 C38.4189497 111.02027994 41.38632773 111.02175028 44.35428429 111.01554489 C45.75948627 111.01655978 47.16471779 111.02681465 48.56977272 111.04716873 C58.95517867 111.17915738 67.57920181 109.5314413 75.70906067 102.66714478 C82.56201164 95.32845242 84.40263859 87.03468836 84.3527832 77.26318359 C84.35898178 76.2342247 84.36518036 75.20526581 84.37156677 74.14512634 C84.37863263 71.98111918 84.37554791 69.81705728 84.36279297 67.65307617 C84.3489282 64.36518087 84.38304834 61.08013618 84.42114258 57.79248047 C84.42209398 55.67854749 84.4202338 53.56461099 84.4152832 51.45068359 C84.42854141 50.48058853 84.44179962 49.51049347 84.45545959 48.51100159 C84.33670127 39.68743492 81.10043089 31.60458128 74.78637695 25.29052734 C65.61503588 18.41202154 57.30575316 17.98169167 46.1105957 17.98974609 C44.77692025 17.98585099 43.44324603 17.98151467 42.10957336 17.97676086 C39.32154308 17.96932655 36.53363947 17.96956891 33.74560547 17.97485352 C30.19861425 17.98063533 26.65214741 17.96373534 23.10524273 17.94050884 C20.35202578 17.92566831 17.59893201 17.92491384 14.84568214 17.92801857 C12.91050026 17.92726551 10.9753373 17.91347409 9.04020691 17.89933777 C-2.59887574 17.95985734 -11.86068139 19.81523901 -20.21362305 28.29052734 Z " fill="#C6490F" transform="translate(227.213623046875,328.70947265625)"/>
<path d="M0 0 C0.68400375 -0.00671722 1.36800751 -0.01343445 2.07273865 -0.02035522 C4.31460008 -0.03921606 6.55616005 -0.04325379 8.7980957 -0.04541016 C10.37360247 -0.05184807 11.94910808 -0.05857715 13.52461243 -0.06558228 C16.82210049 -0.07752655 20.11948404 -0.08126622 23.41699219 -0.08007812 C27.61180326 -0.07987549 31.80593264 -0.10713225 36.0005827 -0.14162254 C39.25485722 -0.16402808 42.50897149 -0.16791147 45.7633152 -0.16685867 C47.30805616 -0.1691959 48.85280283 -0.17791159 50.39746666 -0.19352341 C63.23215832 -0.31106644 74.17366616 1.61060314 84.78637695 9.29052734 C85.65262695 9.88865234 86.51887695 10.48677734 87.41137695 11.10302734 C97.2273754 20.14407854 102.3018512 32.34290829 102.88632202 45.54873657 C102.933796 47.99049738 102.95112141 50.4303393 102.9543457 52.87255859 C102.9576741 53.76738449 102.9610025 54.66221039 102.96443176 55.58415222 C102.9694673 57.46747325 102.97184114 59.3508031 102.97167969 61.23413086 C102.97386273 64.08446263 102.99204525 66.93440463 103.01098633 69.78466797 C103.06557204 87.46714906 101.6625729 101.42806866 89.78637695 115.29052734 C76.65179639 127.69286648 62.03287679 129.44215857 44.6418457 129.45849609 C42.77258171 129.46348869 42.77258171 129.46348869 40.86555481 129.46858215 C38.23914965 129.47362572 35.61273813 129.47599128 32.98632812 129.47583008 C28.99707527 129.47570864 25.00800643 129.49619321 21.01879883 129.51513672 C18.45564872 129.51807167 15.89249732 129.52005578 13.3293457 129.52099609 C11.56158028 129.53177437 11.56158028 129.53177437 9.75810242 129.54277039 C-0.53558547 129.51477488 -10.37008303 128.82367017 -19.58862305 123.97802734 C-20.71010742 123.40439453 -21.8315918 122.83076172 -22.98706055 122.23974609 C-33.38267333 115.95958776 -40.49866005 106.24179016 -43.7741394 94.5428009 C-44.72010244 89.69491276 -44.56172265 84.73644014 -44.5847168 79.81396484 C-44.59374527 78.61172272 -44.60277374 77.40948059 -44.61207581 76.17080688 C-44.62655184 73.63082355 -44.63545844 71.09080314 -44.63916016 68.55078125 C-44.65101982 64.69905328 -44.70020544 60.84894725 -44.75073242 56.99755859 C-44.76020213 54.51970176 -44.76743454 52.04183516 -44.7722168 49.56396484 C-44.80151527 47.86015152 -44.80151527 47.86015152 -44.83140564 46.12191772 C-44.75627503 32.55396525 -39.67791168 21.9725244 -30.33862305 12.36083984 C-21.90321434 4.43563731 -11.59862185 0.07204497 0 0 Z M-19.21362305 27.29052734 C-25.42124292 35.06189879 -26.53173728 42.94628362 -26.61987305 52.61474609 C-26.63127319 53.59739944 -26.64267334 54.5800528 -26.65441895 55.59248352 C-26.67324363 57.66586044 -26.68635685 59.73929619 -26.6940918 61.81274414 C-26.71346003 64.95160869 -26.77554763 68.08782563 -26.83862305 71.22607422 C-26.96500901 83.21930773 -26.75125404 92.6778673 -18.58935547 102.18188477 C-10.08925939 110.28125325 -0.46226515 110.89637935 10.78637695 110.82177734 C12.2316921 110.82447827 13.67700546 110.82836567 15.12231445 110.83337402 C18.13811701 110.83924098 21.15344274 110.83079795 24.16918945 110.81201172 C28.0123491 110.78922297 31.85439101 110.80236133 35.69750977 110.82630157 C38.67806238 110.84083632 41.65835507 110.83611879 44.63891602 110.82579041 C46.05493303 110.82314423 47.47097455 110.82631766 48.88696289 110.83570862 C60.65343732 110.89664165 68.461271 109.10114203 77.13012695 101.01708984 C83.58261082 94.29067977 84.11587916 86.48728812 84.19262695 77.62646484 C84.20972717 76.08377426 84.20972717 76.08377426 84.22717285 74.50991821 C84.24602267 72.33640625 84.25912085 70.16283778 84.2668457 67.98925781 C84.2861937 64.696713 84.3482503 61.40670218 84.41137695 58.11474609 C84.53474597 45.85735315 84.56776681 35.8969832 76.01049805 26.29858398 C69.59200515 19.99474203 60.67773819 18.18850384 51.96142578 18.12939453 C50.81285599 18.11978699 49.66428619 18.11017944 48.48091125 18.10028076 C47.24753525 18.09603088 46.01415924 18.09178101 44.7434082 18.08740234 C43.46463303 18.08170227 42.18585785 18.0760022 40.86833191 18.07012939 C38.16254278 18.05964726 35.45678311 18.05378701 32.75097656 18.05029297 C29.30933114 18.04482683 25.86808501 18.0208279 22.42656422 17.99232101 C19.11552115 17.96903896 15.80452874 17.96723445 12.4934082 17.96240234 C11.27015335 17.95005554 10.0468985 17.93770874 8.78657532 17.92498779 C-1.96667918 17.95270464 -11.32070528 19.48550398 -19.21362305 27.29052734 Z " fill="#C39215" transform="translate(44.213623046875,328.70947265625)"/>
</svg>
